<svg width="90" height="19" viewBox="0 0 90 19" fill="none" xmlns="http://www.w3.org/2000/svg">
<path d="M1.78547 4.78527C1.78547 2.70585 0.877604 2.84303 0.00605098 2.82137V2.22209C0.762608 2.26541 1.53732 2.26541 2.28783 2.26541C3.09886 2.26541 4.20645 2.22209 5.64089 2.22209C10.6523 2.22209 13.382 6.21487 13.382 10.3087C13.382 12.5975 12.2623 18.3448 5.40484 18.3448C4.41829 18.3448 3.50437 18.3015 2.5965 18.3015C1.72495 18.3015 0.871553 18.3232 0 18.3448V17.7456C1.16207 17.6084 1.72495 17.5578 1.77942 15.991L1.78547 4.78527ZM3.67989 15.6156C3.67989 17.3918 4.74512 17.6012 5.69536 17.6012C9.8776 17.6012 11.2515 13.8322 11.2515 10.3954C11.2515 6.07769 8.92737 2.95855 5.19301 2.95855C4.40013 2.95855 4.03093 3.02354 3.67989 3.05242V15.6156ZM14.0598 17.7456H14.4291C14.9677 17.7456 15.3611 17.7456 15.3611 16.9802V10.7203C15.3611 9.70224 15.0706 9.56505 14.3564 9.10296V8.73473C15.2643 8.40982 16.3537 7.97661 16.4264 7.9044C16.5656 7.81054 16.6806 7.78888 16.7774 7.78888C16.8742 7.78888 16.9106 7.92606 16.9106 8.11379V16.9802C16.9106 17.7456 17.3342 17.7456 17.879 17.7456H18.2058V18.3448C17.5461 18.3448 16.8682 18.3015 16.1722 18.3015C15.4761 18.3015 14.7801 18.3232 14.0598 18.3448V17.7456ZM16.1298 4.22931C15.6274 4.22931 15.1796 3.67336 15.1796 3.07408C15.1796 2.49646 15.6456 1.96216 16.1298 1.96216C16.6321 1.96216 17.08 2.44592 17.08 3.07408C17.08 3.70224 16.6564 4.22931 16.1298 4.22931ZM20.0457 10.8575C20.0457 10.0055 19.8339 9.77444 18.926 9.33401V8.89357C19.7552 8.56866 20.5481 8.27263 21.4802 7.78166C21.5407 7.78166 21.5952 7.8322 21.5952 8.01271V9.51451C22.7028 8.56866 23.6469 7.78166 24.9482 7.78166C26.5945 7.78166 27.1755 9.21126 27.1755 11.0163V16.973C27.1755 17.7383 27.5992 17.7383 28.1439 17.7383H28.495V18.3376C27.8171 18.3376 27.1392 18.2943 26.4432 18.2943C25.7471 18.2943 25.0451 18.316 24.349 18.3376V17.7383H24.694C25.2387 17.7383 25.62 17.7383 25.62 16.973V11.0019C25.62 9.68058 24.9482 9.03798 23.8406 9.03798C23.2233 9.03798 22.2367 9.63725 21.5952 10.1499V16.9874C21.5952 17.7528 22.0249 17.7528 22.5635 17.7528H22.9085V18.3521C22.2307 18.3521 21.5528 18.3087 20.8568 18.3087C20.1607 18.3087 19.4647 18.3304 18.7687 18.3521V17.7528H19.1197C19.6644 17.7528 20.0457 17.7528 20.0457 16.9874V10.8575ZM29.9597 11.9694C29.9173 12.1788 29.9173 12.5253 29.9597 13.3123C30.0746 15.5073 31.2549 17.3051 32.8043 17.3051C33.8695 17.3051 34.7048 16.612 35.419 15.76L35.6913 16.0849C34.8016 17.4929 33.694 18.6914 32.1083 18.6914C29.0276 18.6914 28.4102 15.1318 28.4102 13.6589C28.4102 9.13184 30.9644 7.78888 32.3201 7.78888C33.8877 7.78888 35.5763 8.96577 35.5945 11.4134C35.5945 11.5506 35.5945 11.6878 35.5763 11.8322L35.4008 11.9694H29.9597ZM33.3853 11.2257C33.8695 11.2257 33.924 10.9225 33.924 10.6481C33.924 9.47119 33.3248 8.52534 32.2414 8.52534C31.0612 8.52534 30.2502 9.56505 30.0141 11.2257H33.3853ZM36.0363 17.7456H36.5568C37.0955 17.7456 37.4828 17.7456 37.4828 16.9802V10.4892C37.4828 9.77444 36.7687 9.63726 36.4781 9.44953V9.10296C37.8944 8.38816 38.6691 7.78166 38.8447 7.78166C38.9596 7.78166 39.0141 7.85386 39.0141 8.08491V10.1643H39.0565C39.5407 9.2618 40.3517 7.78166 41.5319 7.78166C42.0161 7.78166 42.6335 8.17155 42.6335 9.0091C42.6335 9.63003 42.2643 10.186 41.7256 10.186C41.1204 10.186 41.1204 9.63003 40.4486 9.63003C40.1217 9.63003 39.0383 10.1643 39.0383 11.5506V16.9802C39.0383 17.7456 39.4257 17.7456 39.9704 17.7456H41.0538V18.3448C39.9886 18.3232 39.1775 18.3015 38.3423 18.3015C37.5494 18.3015 36.7324 18.3232 36.0363 18.3448V17.7456ZM43.4929 15.1318C43.7471 16.6553 44.5158 17.9477 45.9321 17.9477C47.0699 17.9477 47.4997 17.1174 47.4997 16.3087C47.4997 13.5795 43.2811 14.4604 43.2811 10.7419C43.2811 9.44953 44.1527 7.78166 46.2831 7.78166C46.9005 7.78166 47.7357 7.99105 48.4862 8.45314L48.6254 10.8069H48.1775C47.9839 9.35567 47.306 8.51812 46.0652 8.51812C45.2905 8.51812 44.5582 9.05242 44.5582 10.0416C44.5582 12.7492 49.0491 11.9116 49.0491 15.5362C49.0491 17.0596 48.0202 18.677 45.7202 18.677C44.9455 18.677 44.0377 18.3521 43.3598 17.89L43.148 15.2329L43.4929 15.1318ZM66.5286 6.4026H66.0444C65.6752 3.70224 64.0713 2.61198 61.9045 2.61198C59.6772 2.61198 56.4452 4.38816 56.4452 9.93328C56.4452 14.6048 59.2354 17.9477 62.2132 17.9477C64.1318 17.9477 65.7176 16.3737 66.1049 13.9477L66.5467 14.0849L66.1049 17.4567C65.2939 18.056 63.1029 18.6842 61.8258 18.6842C57.2986 18.6842 54.4297 15.1968 54.4297 9.99827C54.4297 5.2618 57.9704 1.8683 61.7653 1.8683C63.3329 1.8683 64.846 2.4748 66.3349 3.09574L66.5286 6.4026ZM67.2246 17.7456H67.5938C68.1385 17.7456 68.5259 17.7456 68.5259 16.9802V4.11379C68.5259 2.61198 68.2354 2.56866 67.497 2.30873V1.9405C68.2717 1.63725 69.0827 1.2257 69.4943 0.944114C69.7061 0.80693 69.8635 0.691406 69.918 0.691406C70.039 0.691406 70.0753 0.82859 70.0753 1.01632V16.9802C70.0753 17.7456 70.499 17.7456 71.0437 17.7456H71.3705V18.3448C70.7169 18.3448 70.039 18.3015 69.3369 18.3015C68.6409 18.3015 67.9449 18.3232 67.2246 18.3448V17.7456ZM79.6564 17.0741C79.6564 17.4929 79.8682 17.5145 80.195 17.5145C80.425 17.5145 80.7155 17.4929 80.9697 17.4929V17.9766C80.1345 18.0705 78.5488 18.5542 78.1796 18.6914L78.0827 18.6192V16.7492C76.9206 17.8827 76.0309 18.6914 74.657 18.6914C73.6099 18.6914 72.5266 17.8827 72.5266 15.9477V10.0344C72.5266 9.43509 72.4479 8.85747 71.3645 8.74195V8.30152C72.0605 8.27985 73.61 8.14267 73.8581 8.14267C74.0699 8.14267 74.0699 8.30151 74.0699 8.81415V14.7708C74.0699 15.464 74.0699 17.4495 75.7525 17.4495C76.4122 17.4495 77.2838 16.8503 78.0948 16.0416V9.82498C78.0948 9.36289 77.1688 9.11018 76.4728 8.87913V8.46036C78.2159 8.32318 79.2993 8.13545 79.4929 8.13545C79.6503 8.13545 79.6503 8.2943 79.6503 8.55422L79.6564 17.0741ZM83.5118 9.44953C84.2865 8.66253 85.3336 7.78888 86.3988 7.78888C88.6442 7.78888 90 10.121 90 12.6409C90 15.6661 88.1419 18.6914 85.3699 18.6914C83.9354 18.6914 83.1849 18.1354 82.6765 17.8827L82.0955 18.4098L81.69 18.1571C81.8595 16.7925 81.9623 15.4568 81.9623 14.0488V4.11379C81.9623 2.61198 81.6718 2.56866 80.9334 2.30873V1.9405C81.7081 1.63725 82.5192 1.2257 82.9307 0.944114C83.1426 0.80693 83.2999 0.691406 83.3605 0.691406C83.4755 0.691406 83.5118 0.82859 83.5118 1.01632V9.44953ZM83.5118 15.7311C83.5118 16.612 84.2078 18.0921 85.503 18.0921C87.573 18.0921 88.4445 15.6661 88.4445 13.6084C88.4445 11.1174 86.8588 9.03798 85.3457 9.03798C84.6254 9.03798 84.0262 9.59393 83.5057 10.1282L83.5118 15.7311Z" fill="white"/>
</svg>
