<svg width="50" height="25" viewBox="0 0 50 25" fill="none" xmlns="http://www.w3.org/2000/svg">
<path d="M1.56002 20.0247C1.33647 19.6636 1.0384 19.0868 0.854304 18.6597C-0.219608 16.1589 -0.267824 13.5699 0.635138 11.0867C1.63015 8.36122 3.53251 6.27862 5.99154 5.2131C9.08178 3.87901 12.4964 4.13878 15.4595 5.90437C17.3399 6.9875 18.6725 8.66062 19.685 11.0294C19.8121 11.3332 19.9261 11.6546 20.0401 11.932L1.56002 20.0247ZM7.73172 9.23301C5.53568 10.1796 4.40479 12.249 4.64149 14.6707L13.9341 10.6508C12.3342 8.76629 10.2565 8.14107 7.73172 9.23301V9.23301ZM15.0913 17.9773C15.0869 17.9773 15.0869 17.9817 15.0869 17.9817L14.8941 17.8496C14.3374 18.7522 13.4739 19.4875 12.3824 19.963C10.3047 20.87 8.38045 20.6367 6.99532 19.417L6.86821 19.6108C6.86821 19.6108 6.86821 19.6064 6.86382 19.6064L4.5056 23.1508C5.09296 23.5602 5.71978 23.9037 6.37728 24.1811C8.98096 25.2686 11.646 25.2157 14.2716 24.071C16.1696 23.2432 17.6599 21.984 18.6769 20.3857L15.0913 17.9773ZM26.4967 0V19.6988L29.5475 20.9405L27.8161 25L24.4497 23.5911C23.6957 23.2608 23.1785 22.7589 22.7928 22.1909C22.4202 21.6141 22.144 20.8172 22.144 19.7517V0H26.4967ZM34.3954 14.6839C34.3954 13.0063 35.1362 11.5005 36.3021 10.479L33.1725 6.97429C31.0509 8.85875 29.714 11.6106 29.714 14.6751C29.7096 17.7439 31.0466 20.5002 33.1637 22.3846L36.289 18.8799C35.1274 17.854 34.3954 16.357 34.3954 14.6839V14.6839ZM39.9534 20.2712C39.3398 20.2712 38.7437 20.1656 38.1914 19.9806L36.6966 24.4408C37.718 24.7843 38.8094 24.9736 39.9491 24.9736C44.9022 24.978 49.0357 21.4468 49.9956 16.7577L45.4019 15.8154C44.8803 18.3647 42.6404 20.2756 39.9534 20.2712V20.2712ZM39.9666 4.39415C38.8313 4.39415 37.7399 4.57908 36.7186 4.91811L38.2001 9.38271C38.7568 9.19778 39.3485 9.09651 39.9622 9.09651C42.6536 9.10092 44.8978 11.0206 45.4063 13.5743L50 12.6409C49.0576 7.94294 44.9241 4.39856 39.9666 4.39415V4.39415Z" fill="white"/>
</svg>
